<?xml version="1.0" encoding="iso-8859-1"?>
<!-- Uploaded to: SVG Repo, www.svgrepo.com, Generator: SVG Repo Mixer Tools -->
<!DOCTYPE svg PUBLIC "-//W3C//DTD SVG 1.1//EN" "http://www.w3.org/Graphics/SVG/1.1/DTD/svg11.dtd">
<svg height="800px" width="800px" version="1.1" id="Capa_1" xmlns="http://www.w3.org/2000/svg" xmlns:xlink="http://www.w3.org/1999/xlink" 
	 viewBox="0 0 122.115 122.115" xml:space="preserve">
<g>
	<g style="opacity:0.4;">
		<polygon style="fill:#FFC847;" points="61.058,0 63.714,52.883 96.946,11.661 68.012,56.005 119.127,42.189 69.653,61.058 
			119.127,79.925 68.012,66.11 96.946,110.454 63.714,69.232 61.058,122.115 58.401,69.232 25.169,110.454 54.104,66.11 
			2.988,79.925 52.463,61.058 2.988,42.189 54.104,56.005 25.169,11.661 58.401,52.883 		"/>
	</g>
	<g>
		<polygon style="fill:#FFC847;" points="61.058,28.129 68.394,50.705 92.131,50.705 72.927,64.658 80.262,87.234 61.058,73.281 
			41.854,87.234 49.189,64.658 29.984,50.705 53.723,50.705 		"/>
	</g>
</g>
</svg>